PathFileType	4	(X/Y/Z)	C:\Users\WrightLab\Desktop\Jo\P5V137.trc
DataRate	CameraRate	NumFrames	NumMarkers	Units	OrigDataRate	OrigDataStartFrame	OrigNumFrames
100.00	100.00	       7	19	mm	100.00	268	       534
Frame#	Time	Headset_Front			Headset_Back			Headset_Left			Headset_Right			Left_Shoulder			Right_Shoulder			Sternum			C7			Left Elbow			Right Elbow			Left Wrist			Right Wrist			Left ASIS			Right ASIS			S2			Left Knee			Right Knee			Left Ankle			Right Ankle			
		X1	Y1	Z1	X2	Y2	Z2	X3	Y3	Z3	X4	Y4	Z4	X5	Y5	Z5	X6	Y6	Z6	X7	Y7	Z7	X8	Y8	Z8	X9	Y9	Z9	X10	Y10	Z10	X11	Y11	Z11	X12	Y12	Z12	X13	Y13	Z13	X14	Y14	Z14	X15	Y15	Z15	X16	Y16	Z16	X17	Y17	Z17	X18	Y18	Z18	X19	Y19	Z19	

268	2.670	-474.88666	1573.21570	880.71930										-508.98441	1473.88818	522.21362	-195.72911	1469.95776	791.30322	-444.20044	1330.50854	712.15063	-279.35611	1524.92285	570.92188	-523.46167	1218.30225	396.64655	-81.55896	1223.39063	751.16632	-604.69025	1130.41443	598.84534	-235.77199	1193.76965	898.23651	-503.01434	971.44104	541.30853	-379.05646	939.25537	790.96362	-198.64421	985.31079	578.30273	-354.56531	514.19452	450.90244	-416.21854	514.08148	813.21350	-113.98169	168.65169	367.96387	-520.35791	100.25965	802.95905	
269	2.680	-480.97836	1571.89258	890.42401										-516.02545	1472.37476	531.30591	-201.72479	1467.97400	802.17236	-453.27087	1329.24963	721.80072	-286.14957	1522.04639	580.73132	-531.09210	1216.23425	405.14169	-90.00761	1220.33777	757.98743	-612.70837	1129.28662	608.45959	-241.90106	1191.19104	906.36481	-514.96216	970.68591	550.09052	-390.75693	937.50854	800.15564	-210.47070	981.17938	588.29767	-363.57294	514.57599	458.56952	-428.36761	511.35056	816.90790	-120.51588	172.32007	371.29453	-528.85352	100.46220	800.67346	
270	2.690	-486.48297	1570.36304	900.21356										-522.95758	1470.82092	540.25964	-209.88322	1464.74744	810.72968	-461.60889	1327.55212	731.53076	-292.89108	1519.30933	590.67780	-538.74744	1214.72852	415.74820	-98.13694	1216.76184	767.38745	-620.49243	1128.16724	617.91052	-250.60565	1188.65173	915.08942	-526.72192	969.51721	558.83319	-403.10672	936.03644	809.79657	-222.34877	977.22107	598.06354	-374.08810	514.46350	466.33032	-441.32211	508.00281	822.97467	-129.01523	178.04097	373.40970	-534.44061	101.98183	801.59534	
271	2.700	-491.79950	1569.40503	909.98016										-529.30359	1469.74939	549.31775	-216.55527	1461.97839	819.64539	-469.76035	1326.78955	741.26221	-299.18863	1517.16211	599.51819	-545.47144	1212.54333	424.81445	-106.96522	1213.94092	773.09686	-628.24689	1127.22571	627.40436	-256.86884	1186.47961	924.03949	-538.08282	968.73883	567.89465	-415.22061	934.81396	820.00665	-233.95439	973.49615	608.15533	-385.17740	514.32318	474.56940	-454.05045	505.23181	828.59180	-139.82364	182.90826	377.60556	-538.99554	101.91252	800.99554	
272	2.710	-497.79193	1569.09949	920.13562										-535.59454	1469.41345	557.22717	-223.35458	1460.09375	827.27429	-477.60889	1326.71362	750.87170	-306.08313	1515.94153	607.76709	-552.72321	1211.49915	434.41223	-114.82188	1210.39319	779.30817	-636.19452	1126.54993	636.70325	-265.08270	1184.89844	933.48730	-549.27936	968.32587	578.21368	-426.32791	933.88501	829.39685	-246.03188	969.99194	618.33856	-397.49982	513.94617	483.58020	-467.41464	502.17447	832.84387	-153.27313	187.84019	382.61389	-540.45331	101.94157	800.68213	
273	2.720	-503.45496	1569.12317	930.21088										-542.26331	1469.54993	564.92468	-231.04248	1458.13135	834.80029	-485.87131	1327.76477	760.69281	-312.71606	1515.07764	616.53394	-559.31158	1210.30994	444.31085	-122.77309	1209.48279	791.21454	-644.11816	1126.08777	646.46753	-271.75101	1183.65674	943.44519	-559.98376	968.51465	588.87170	-436.78439	933.83636	839.84106	-257.60953	967.57349	626.57245	-411.50259	514.34656	494.74634	-481.51041	499.97656	840.59229	-168.95421	192.72325	387.76276	-541.11407	103.43964	802.39380	
274	2.730	-508.26459	1568.71826	939.53455										-548.90985	1470.50317	572.59857	-237.16658	1458.61304	844.97375	-494.62762	1329.52893	770.82904	-319.53500	1515.22839	625.74292	-565.78094	1209.70789	454.24600	-131.37764	1208.31323	799.61395	-651.45245	1125.84106	655.89374	-278.98596	1181.79126	952.62836	-570.10858	969.19122	599.84808	-446.93738	935.37903	849.77844	-269.54501	964.66205	636.67883	-428.43903	513.94812	507.49890	-493.53125	501.42914	850.22528	-186.31387	198.81285	393.08768	-542.10419	104.12895	804.20660	
